<svg width="439" height="553" viewBox="0 0 439 553" fill="none" xmlns="http://www.w3.org/2000/svg">
<path d="M268.3 471.2C268.237 476.925 265.907 482.392 261.821 486.403C257.735 490.414 252.226 492.643 246.5 492.6H158.3C155.463 492.629 152.648 492.098 150.016 491.038C147.384 489.978 144.987 488.409 142.962 486.421C140.937 484.433 139.324 482.066 138.215 479.454C137.106 476.842 136.524 474.037 136.5 471.2V133.2C136.563 127.475 138.893 122.008 142.979 117.997C147.065 113.985 152.574 111.757 158.3 111.8H246.5C249.337 111.771 252.152 112.302 254.784 113.362C257.416 114.422 259.813 115.991 261.838 117.979C263.863 119.967 265.476 122.334 266.585 124.946C267.694 127.558 268.277 130.363 268.3 133.2V471.2Z" fill="#BCBEC0"/>
<path d="M266.5 469.4C266.497 475.022 264.263 480.413 260.288 484.388C256.313 488.363 250.922 490.598 245.3 490.6H159.8C154.178 490.598 148.788 488.363 144.812 484.388C140.837 480.413 138.603 475.022 138.6 469.4V134.9C138.603 129.278 140.837 123.888 144.812 119.912C148.788 115.937 154.178 113.703 159.8 113.7H245.3C250.922 113.703 256.313 115.937 260.288 119.912C264.263 123.888 266.497 129.278 266.5 134.9V469.4Z" fill="#E6E7E8"/>
<path d="M200.1 231.2C220.037 231.2 236.2 215.037 236.2 195.1C236.2 175.163 220.037 159 200.1 159C180.163 159 164 175.163 164 195.1C164 215.037 180.163 231.2 200.1 231.2Z" fill="#A7A9AC"/>
<path d="M214.7 393.6C214.7 390.47 213.457 387.469 211.244 385.256C209.031 383.043 206.03 381.8 202.9 381.8C199.771 381.8 196.769 383.043 194.556 385.256C192.343 387.469 191.1 390.47 191.1 393.6C191.123 395.652 191.668 397.665 192.682 399.449C193.697 401.233 195.148 402.73 196.9 403.8V425.7C196.9 427.291 197.532 428.817 198.657 429.942C199.783 431.068 201.309 431.7 202.9 431.7C204.491 431.7 206.017 431.068 207.143 429.942C208.268 428.817 208.9 427.291 208.9 425.7V403.8C210.684 402.766 212.16 401.276 213.179 399.484C214.198 397.692 214.723 395.661 214.7 393.6Z" fill="#414042"/>
<g opacity="0.3">
<path opacity="0.3" d="M210.2 155.4L207.4 155.3C195.725 154.758 184.23 158.337 174.926 165.411C165.622 172.485 159.1 182.604 156.5 194C156.5 194.9 154.5 205.3 165.6 207.3C174.8 208.9 175.7 201.9 175.7 201.9C177.426 194.791 181.575 188.506 187.434 184.126C193.292 179.746 200.494 177.544 207.8 177.9C225.2 178.7 239.3 193.5 237.8 210.8C235 245 163.2 259.2 163.2 259.2C163.2 259.2 152.5 261.9 152.1 270.9L151.8 276.5L147 392.1C146.911 395.639 148.23 399.069 150.667 401.638C153.104 404.206 156.461 405.703 160 405.8L235.3 409.2C242.8 409.5 249.2 404 249.5 396.7L254.6 276L255.4 258.7L257.7 207.4C258.289 194.207 253.617 181.32 244.711 171.57C235.804 161.82 223.392 156.004 210.2 155.4Z" fill="#939598"/>
</g>
<path d="M210.6 155.1L207.8 154.7C196.216 153.139 184.451 155.685 174.55 161.896C164.648 168.107 157.236 177.591 153.6 188.7C153.5 189.6 150.6 199.8 161.5 202.7C170.6 205.1 172.1 198.2 172.1 198.2C174.465 191.281 179.156 185.396 185.374 181.548C191.593 177.701 198.953 176.129 206.2 177.1C223.4 179.4 236.2 195.4 233.2 212.6C227.4 246.4 154.6 254.2 154.6 254.2C154.6 254.2 143.7 256 142.5 264.8L141.7 270.4L127.5 375.5C126.5 382.7 131.8 389.3 139.3 390.3L214 400.4C217.514 400.941 221.098 400.065 223.967 397.965C226.835 395.865 228.753 392.713 229.3 389.2L244.2 279L246.5 261.8L253.4 210.9C257.1 183.9 237.9 158.8 210.6 155.1Z" fill="#044280"/>
<path opacity="0.4" d="M201.3 222.2C216.322 222.2 228.5 210.022 228.5 195C228.5 179.978 216.322 167.8 201.3 167.8C186.278 167.8 174.1 179.978 174.1 195C174.1 210.022 186.278 222.2 201.3 222.2Z" fill="#808285"/>
<g opacity="0.4">
<path opacity="0.4" d="M62.5001 482.1L60.6001 480.7L347 94.7998L349 96.1998L62.5001 482.1Z" fill="url(#paint0_linear)"/>
<path opacity="0.4" d="M65.5 486L63.5 484.6L350 98.7002L351.9 100.1L65.5 486Z" fill="url(#paint1_linear)"/>
<path opacity="0.4" d="M68.5 490L66.5 488.5L353 102.6L354.9 104.1L68.5 490Z" fill="url(#paint2_linear)"/>
<path opacity="0.4" d="M71.4 493.9L69.5 492.4L356 106.6L357.9 108L71.4 493.9Z" fill="url(#paint3_linear)"/>
<path opacity="0.4" d="M74.4 497.8L72.5 496.4L359 110.5L360.9 111.9L74.4 497.8Z" fill="url(#paint4_linear)"/>
<path opacity="0.4" d="M77.4 501.7L75.5 500.3L362 114.4L363.9 115.8L77.4 501.7Z" fill="url(#paint5_linear)"/>
<path opacity="0.4" d="M80.4 505.6L78.5 504.2L364.9 118.3L366.9 119.7L80.4 505.6Z" fill="url(#paint6_linear)"/>
<path opacity="0.4" d="M83.3999 509.5L81.3999 508.1L367.9 122.2L369.8 123.7L83.3999 509.5Z" fill="url(#paint7_linear)"/>
<path opacity="0.4" d="M86.2999 513.5L84.3999 512L370.9 126.1L372.8 127.6L86.2999 513.5Z" fill="url(#paint8_linear)"/>
<path opacity="0.4" d="M89.2999 517.4L87.3999 516L373.9 130.1L375.8 131.5L89.2999 517.4Z" fill="url(#paint9_linear)"/>
<path opacity="0.4" d="M92.2999 521.3L90.3999 519.9L376.9 134L378.8 135.4L92.2999 521.3Z" fill="url(#paint10_linear)"/>
<path opacity="0.4" d="M95.2999 525.2L93.3999 523.8L379.9 137.9L381.8 139.3L95.2999 525.2Z" fill="url(#paint11_linear)"/>
<path opacity="0.4" d="M98.3 529.1L96.3 527.7L382.8 141.8L384.8 143.2L98.3 529.1Z" fill="url(#paint12_linear)"/>
<path opacity="0.4" d="M101.3 533.1L99.3 531.6L385.8 145.7L387.7 147.2L101.3 533.1Z" fill="url(#paint13_linear)"/>
<path opacity="0.4" d="M104.2 537L102.3 535.5L388.8 149.7L390.7 151.1L104.2 537Z" fill="url(#paint14_linear)"/>
<path opacity="0.4" d="M107.2 540.9L105.3 539.5L391.8 153.6L393.7 155L107.2 540.9Z" fill="url(#paint15_linear)"/>
<path opacity="0.4" d="M110.2 544.8L108.3 543.4L394.8 157.5L396.7 158.9L110.2 544.8Z" fill="url(#paint16_linear)"/>
<path opacity="0.4" d="M113.2 548.7L111.3 547.3L397.7 161.4L399.7 162.8L113.2 548.7Z" fill="url(#paint17_linear)"/>
<path opacity="0.4" d="M116.2 552.6L114.2 551.2L400.7 165.3L402.6 166.8L116.2 552.6Z" fill="url(#paint18_linear)"/>
<path opacity="0.4" d="M12.2999 398.9L10.3999 397.5L296.8 11.5996L298.8 12.9996L12.2999 398.9Z" fill="url(#paint19_linear)"/>
<path opacity="0.4" d="M8.7999 395.1L6.8999 393.6L293.4 7.7002L295.3 9.2002L8.7999 395.1Z" fill="url(#paint20_linear)"/>
<path opacity="0.4" d="M5.4 391.2L3.5 389.8L289.9 3.90039L291.9 5.30039L5.4 391.2Z" fill="url(#paint21_linear)"/>
<path opacity="0.4" d="M1.9 387.3L0 385.9L286.5 0L288.4 1.4L1.9 387.3Z" fill="url(#paint22_linear)"/>
<path opacity="0.4" d="M15.3 402.8L13.3 401.4L299.8 15.5L301.7 17L15.3 402.8Z" fill="url(#paint23_linear)"/>
<path opacity="0.4" d="M18.2001 406.8L16.3 405.3L302.8 19.4004L304.7 20.9004L18.2001 406.8Z" fill="url(#paint24_linear)"/>
<path opacity="0.4" d="M21.2001 410.7L19.3 409.2L305.8 23.4004L307.7 24.8004L21.2001 410.7Z" fill="url(#paint25_linear)"/>
<path opacity="0.4" d="M24.2001 414.6L22.3 413.2L308.8 27.2998L310.7 28.6998L24.2001 414.6Z" fill="url(#paint26_linear)"/>
<path opacity="0.4" d="M27.2001 418.5L25.3 417.1L311.7 31.2002L313.7 32.6002L27.2001 418.5Z" fill="url(#paint27_linear)"/>
<path opacity="0.4" d="M30.2 422.4L28.2 421L314.7 35.0996L316.6 36.4996L30.2 422.4Z" fill="url(#paint28_linear)"/>
<path opacity="0.4" d="M33.2 426.4L31.2 424.9L317.7 39L319.6 40.5L33.2 426.4Z" fill="url(#paint29_linear)"/>
<path opacity="0.4" d="M36.0999 430.3L34.2 428.8L320.7 43L322.6 44.4L36.0999 430.3Z" fill="url(#paint30_linear)"/>
<path opacity="0.4" d="M39.0999 434.2L37.2 432.8L323.7 46.9004L325.6 48.3004L39.0999 434.2Z" fill="url(#paint31_linear)"/>
<path opacity="0.4" d="M42.0999 438.1L40.2 436.7L326.7 50.7998L328.6 52.1998L42.0999 438.1Z" fill="url(#paint32_linear)"/>
<path opacity="0.4" d="M45.0999 442L43.2 440.6L329.6 54.7002L331.6 56.1002L45.0999 442Z" fill="url(#paint33_linear)"/>
<path opacity="0.4" d="M48.1001 445.9L46.1001 444.5L332.6 58.5996L334.5 60.0996L48.1001 445.9Z" fill="url(#paint34_linear)"/>
<path opacity="0.4" d="M51.0001 449.9L49.1001 448.4L335.6 62.5L337.5 64L51.0001 449.9Z" fill="url(#paint35_linear)"/>
<path opacity="0.4" d="M54.0001 453.8L52.1001 452.4L338.6 66.5L340.5 67.9L54.0001 453.8Z" fill="url(#paint36_linear)"/>
<path opacity="0.4" d="M57.0001 457.7L55.1001 456.3L341.6 70.4004L343.5 71.8004L57.0001 457.7Z" fill="url(#paint37_linear)"/>
<path opacity="0.4" d="M60.0001 461.6L58.1001 460.2L344.5 74.2998L346.5 75.6998L60.0001 461.6Z" fill="url(#paint38_linear)"/>
<path opacity="0.4" d="M63.0001 465.5L61.1001 464.1L347.5 78.2002L349.5 79.6002L63.0001 465.5Z" fill="url(#paint39_linear)"/>
<path opacity="0.4" d="M66 469.5L64 468L350.5 82.0996L352.4 83.5996L66 469.5Z" fill="url(#paint40_linear)"/>
</g>
<path d="M151.3 311.7C158.6 312.7 161.7 316.4 160.9 322.8C160.4 326.1 159.1 328.6 156.8 330.1C154.367 331.651 151.424 332.189 148.6 331.6L142.6 330.8C142.79 330.699 142.959 330.563 143.1 330.4C143.291 330.205 143.428 329.964 143.5 329.7C143.617 329.44 143.717 329.173 143.8 328.9C143.9 328.6 143.9 328.4 144 328.1L145.9 313.8V313C145.921 312.73 145.887 312.457 145.8 312.2C145.797 311.954 145.742 311.711 145.638 311.487C145.535 311.263 145.386 311.063 145.2 310.9L151.3 311.7ZM147.9 328.2L149.4 328.4C150.226 328.569 151.078 328.567 151.903 328.395C152.728 328.223 153.51 327.885 154.2 327.4C154.941 326.808 155.548 326.065 155.979 325.22C156.41 324.375 156.656 323.448 156.7 322.5C157.024 320.703 156.668 318.849 155.7 317.3C155.145 316.624 154.462 316.063 153.69 315.651C152.917 315.239 152.071 314.984 151.2 314.9L149.6 314.7L147.9 328.2Z" fill="#6B1E2D"/>
<path d="M179.5 317.9C181.111 320.274 181.788 323.16 181.4 326.002C181.013 328.845 179.588 331.444 177.4 333.3C175.408 334.74 172.933 335.35 170.5 335C169.296 334.872 168.132 334.494 167.082 333.892C166.032 333.289 165.119 332.475 164.4 331.5C162.7 329.4 162.1 326.7 162.5 323.4C162.632 321.974 163.055 320.591 163.743 319.335C164.431 318.079 165.369 316.978 166.5 316.1C168.486 314.68 170.94 314.075 173.359 314.41C175.777 314.744 177.975 315.994 179.5 317.9ZM166.5 326.9C166.666 327.76 167.007 328.577 167.5 329.3C167.88 329.915 168.389 330.439 168.992 330.836C169.596 331.233 170.279 331.493 170.994 331.597C171.709 331.702 172.437 331.649 173.13 331.443C173.822 331.236 174.46 330.88 175 330.4C176.393 329.131 177.251 327.379 177.4 325.5C177.733 323.638 177.378 321.719 176.4 320.1C176.012 319.492 175.499 318.972 174.896 318.576C174.293 318.179 173.613 317.915 172.9 317.8C172.186 317.696 171.458 317.749 170.767 317.957C170.076 318.164 169.439 318.52 168.9 319C167.524 320.282 166.67 322.027 166.5 323.9C166.299 324.89 166.299 325.91 166.5 326.9Z" fill="#6B1E2D"/>
<path d="M144 354.8L139.4 354.2C139.5 354.1 139.7 354 139.9 353.8C140.09 353.604 140.228 353.363 140.3 353.1C140.4 352.9 140.5 352.6 140.6 352.4C140.7 352.2 140.7 351.9 140.8 351.6L142.6 338.3V337.5C142.616 337.229 142.582 336.958 142.5 336.7C142.486 336.47 142.426 336.245 142.323 336.039C142.219 335.832 142.076 335.649 141.9 335.5L147.5 336.3L151.2 346.2C151.5 347 151.8 347.8 152 348.5C152.2 349.2 152.5 350.1 152.8 350.8C152.823 349.728 152.923 348.658 153.1 347.6C153.2 346.3 153.4 344.8 153.7 343L154.5 337.2L158.1 337.7L155.6 356.4L150.9 355.8L147 345.4C146.77 344.81 146.57 344.21 146.4 343.6C146.2 342.9 146 342.1 145.7 341.2C145.6 342 145.5 343 145.4 344.2C145.3 345.4 145.1 346.7 144.9 348.3L144 354.8Z" fill="#6B1E2D"/>
<path d="M175 342.2C176.513 344.412 177.155 347.106 176.805 349.763C176.454 352.421 175.135 354.855 173.1 356.6C171.23 357.971 168.893 358.547 166.6 358.2C165.46 358.073 164.357 357.715 163.36 357.148C162.362 356.581 161.491 355.816 160.8 354.9C159.986 353.829 159.405 352.599 159.095 351.29C158.785 349.981 158.753 348.622 159 347.3C159.122 345.974 159.513 344.688 160.149 343.518C160.786 342.349 161.653 341.322 162.7 340.5C163.607 339.821 164.64 339.33 165.739 339.055C166.838 338.78 167.98 338.728 169.1 338.9C171.421 339.191 173.537 340.375 175 342.2ZM162.8 350.7C162.986 351.522 163.325 352.303 163.8 353C164.169 353.573 164.659 354.059 165.236 354.423C165.814 354.787 166.463 355.02 167.14 355.106C167.817 355.192 168.504 355.128 169.154 354.92C169.803 354.711 170.399 354.363 170.9 353.9C172.223 352.714 173.045 351.069 173.2 349.3C173.514 347.535 173.158 345.716 172.2 344.2C171.819 343.646 171.331 343.174 170.764 342.814C170.197 342.453 169.563 342.21 168.9 342.1C168.217 342.003 167.522 342.061 166.864 342.269C166.206 342.477 165.604 342.829 165.1 343.3C163.796 344.5 162.978 346.137 162.8 347.9C162.65 348.827 162.65 349.772 162.8 350.7Z" fill="#6B1E2D"/>
<path d="M185 360.4L181.5 359.9L183.6 344.3L178.9 343.7L179.3 340.7L192.8 342.5L191.2 345.4L187.1 344.8L185 360.4Z" fill="#6B1E2D"/>
<path d="M143.7 360.2C149.7 361 152.3 364.1 151.6 369.4C151.2 372.2 150.1 374.2 148.2 375.4C146.16 376.629 143.749 377.09 141.4 376.7L136.4 376C136.5 375.9 136.7 375.8 136.8 375.7C136.979 375.534 137.116 375.329 137.2 375.1L137.5 374.5C137.589 374.278 137.624 374.038 137.6 373.8L139.2 362V361.3C139.216 361.062 139.182 360.824 139.1 360.6C139.06 360.188 138.884 359.801 138.6 359.5L143.7 360.2ZM140.8 373.9L142.1 374.1C142.786 374.241 143.494 374.244 144.181 374.106C144.868 373.969 145.521 373.695 146.1 373.3C146.701 372.809 147.198 372.202 147.558 371.514C147.919 370.827 148.137 370.074 148.2 369.3C148.493 367.817 148.207 366.278 147.4 365C146.948 364.436 146.388 363.969 145.753 363.625C145.117 363.281 144.419 363.069 143.7 363L142.4 362.8L140.8 373.9Z" fill="#6B1E2D"/>
<path d="M155.7 378.6L152.5 378.2L154.4 364.1V363.4C154.416 363.162 154.382 362.923 154.3 362.7C154.236 362.294 154.063 361.914 153.8 361.6L157.8 362.1L155.7 378.6Z" fill="#6B1E2D"/>
<path d="M159 378.9L158.2 375.8C159.312 376.301 160.491 376.638 161.7 376.8C163.6 377.1 164.6 376.5 164.8 375.1C164.842 374.82 164.828 374.534 164.759 374.26C164.691 373.985 164.569 373.727 164.4 373.5C164.218 373.313 164.017 373.145 163.8 373C163.533 372.754 163.229 372.552 162.9 372.4C162.339 372.112 161.804 371.777 161.3 371.4C160.981 371.155 160.68 370.888 160.4 370.6C159.991 370.104 159.698 369.524 159.543 368.901C159.387 368.278 159.372 367.629 159.5 367C159.559 366.321 159.781 365.667 160.147 365.093C160.512 364.518 161.011 364.041 161.6 363.7C162.981 362.972 164.576 362.759 166.1 363.1L167.3 363.4C167.814 363.521 168.316 363.688 168.8 363.9L168.4 366.7C167.9 366.5 167.5 366.3 167 366.1C166.513 365.92 166.011 365.786 165.5 365.7C164.827 365.6 164.14 365.669 163.5 365.9C163.259 366.031 163.052 366.217 162.896 366.443C162.739 366.669 162.638 366.928 162.6 367.2C162.545 367.511 162.571 367.831 162.676 368.129C162.781 368.426 162.962 368.692 163.2 368.9C163.382 369.086 163.583 369.254 163.8 369.4C164.1 369.6 164.5 369.8 165 370.1C165.449 370.376 165.883 370.676 166.3 371C166.648 371.247 166.952 371.551 167.2 371.9C167.849 372.868 168.1 374.05 167.9 375.2C167.84 375.893 167.63 376.565 167.284 377.169C166.939 377.773 166.467 378.296 165.9 378.7C164.458 379.562 162.744 379.848 161.1 379.5C160.356 379.515 159.624 379.306 159 378.9Z" fill="#6B1E2D"/>
<path d="M175.8 381.4L172.7 381L174.6 367.2L170.5 366.6L170.9 363.9L182.8 365.5L181.4 368L177.8 367.5L175.8 381.4Z" fill="#6B1E2D"/>
<path d="M183.9 368.1C183.967 367.598 183.933 367.088 183.8 366.6C183.767 366.234 183.628 365.887 183.4 365.6L187.4 366.1L186 376.6C185.827 377.509 185.931 378.45 186.3 379.3C186.598 379.684 186.976 380 187.407 380.224C187.839 380.449 188.314 380.577 188.8 380.6C191 380.9 192.2 379.9 192.6 377.6L194 367.1L197.2 367.5L195.8 378.2C195.751 378.987 195.528 379.754 195.148 380.446C194.768 381.138 194.239 381.736 193.6 382.2C192.828 382.712 191.962 383.065 191.051 383.236C190.141 383.408 189.205 383.396 188.3 383.2C184.2 382.6 182.3 380.4 182.9 376.4L183.9 368.1Z" fill="#6B1E2D"/>
<path d="M208.9 385.9L205 385.4L203 379.1C202.953 378.868 202.845 378.653 202.687 378.477C202.529 378.301 202.326 378.171 202.1 378.1L201.7 378L200.8 384.7L196.8 384.2C197.128 383.987 197.374 383.67 197.5 383.3C197.618 383.075 197.718 382.841 197.8 382.6C197.9 382.4 197.9 382.1 198 381.9L199.6 370.2V369.5C199.616 369.262 199.582 369.024 199.5 368.8C199.436 368.395 199.263 368.015 199 367.7L204.2 368.4C208.2 368.9 209.9 370.7 209.5 373.8C209.38 374.849 208.924 375.832 208.2 376.6C207.572 377.295 206.725 377.754 205.8 377.9C206.124 378.201 206.365 378.58 206.5 379L208.9 385.9ZM202 375.7L202.7 375.8C203.49 375.94 204.304 375.798 205 375.4C205.303 375.222 205.56 374.975 205.751 374.68C205.942 374.385 206.062 374.05 206.1 373.7C206.3 372.1 205.4 371.2 203.5 370.9L202.7 370.8L202 375.7Z" fill="#6B1E2D"/>
<path d="M219.8 378.4C220.613 378.674 221.292 379.245 221.7 380C222.089 380.736 222.23 381.578 222.1 382.4C222.044 383.042 221.844 383.663 221.515 384.217C221.186 384.771 220.737 385.244 220.2 385.6C218.664 386.601 216.797 386.96 215 386.6L209.5 385.9C209.8 385.8 210 385.5 210.3 385C210.411 384.818 210.479 384.613 210.5 384.4C210.6 384.2 210.6 383.9 210.7 383.7L212.3 372C212.4 371.539 212.4 371.061 212.3 370.6C212.26 370.188 212.084 369.801 211.8 369.5L218 370.3C221.6 370.8 223.2 372.4 222.8 375C222.719 375.794 222.366 376.536 221.8 377.1C221.296 377.743 220.592 378.2 219.8 378.4ZM215.4 372.7L214.9 376.7L216 376.9C216.496 376.977 216.998 377.01 217.5 377C217.859 377.024 218.214 376.917 218.5 376.7C218.767 376.525 218.988 376.288 219.144 376.009C219.301 375.731 219.389 375.419 219.4 375.1C219.6 373.9 218.8 373.2 217 372.9L215.4 372.7ZM215.5 384C216.279 384.129 217.08 384.025 217.8 383.7C218.086 383.536 218.326 383.304 218.501 383.025C218.675 382.746 218.778 382.428 218.8 382.1C218.882 381.735 218.86 381.353 218.737 381C218.613 380.646 218.392 380.334 218.1 380.1C217.372 379.653 216.551 379.379 215.7 379.3L214.5 379.1L213.9 383.7L215.5 384Z" fill="#6B1E2D"/>
<path d="M150.9 311.1C158.2 312.1 161.3 315.8 160.5 322.2C160 325.5 158.7 328 156.4 329.5C153.967 331.05 151.024 331.588 148.2 331L142.2 330.2C142.39 330.098 142.559 329.963 142.7 329.8C142.89 329.604 143.028 329.363 143.1 329.1C143.216 328.84 143.317 328.572 143.4 328.3C143.5 328 143.5 327.8 143.6 327.5L145.5 313.2V312.4C145.521 312.129 145.487 311.857 145.4 311.6C145.397 311.353 145.342 311.11 145.238 310.886C145.135 310.662 144.986 310.462 144.8 310.3L150.9 311.1ZM147.5 327.6L149 327.8C149.826 327.968 150.678 327.966 151.503 327.794C152.328 327.622 153.11 327.284 153.8 326.8C154.541 326.208 155.148 325.465 155.579 324.62C156.01 323.775 156.256 322.847 156.3 321.9C156.624 320.102 156.268 318.249 155.3 316.7C154.745 316.023 154.062 315.462 153.29 315.051C152.517 314.639 151.671 314.384 150.8 314.3L149.2 314.1L147.5 327.6Z" fill="white"/>
<path d="M179.1 317.3C180.711 319.674 181.388 322.559 181 325.402C180.613 328.245 179.188 330.844 177 332.7C175.007 334.14 172.533 334.749 170.1 334.4C168.896 334.271 167.732 333.894 166.682 333.291C165.632 332.689 164.718 331.874 164 330.9C162.3 328.8 161.7 326.1 162.1 322.8C162.232 321.374 162.654 319.991 163.342 318.735C164.031 317.479 164.969 316.378 166.1 315.5C167.065 314.782 168.163 314.262 169.33 313.971C170.497 313.679 171.71 313.621 172.9 313.8C174.121 313.916 175.304 314.287 176.372 314.89C177.441 315.493 178.37 316.314 179.1 317.3ZM166.1 326.3C166.266 327.16 166.607 327.976 167.1 328.7C167.479 329.315 167.989 329.839 168.592 330.236C169.196 330.632 169.879 330.892 170.594 330.997C171.308 331.102 172.037 331.049 172.729 330.842C173.421 330.636 174.06 330.28 174.6 329.8C175.993 328.531 176.851 326.779 177 324.9C177.333 323.038 176.978 321.119 176 319.5C175.612 318.891 175.099 318.372 174.496 317.976C173.893 317.579 173.212 317.315 172.5 317.2C171.786 317.096 171.058 317.149 170.367 317.356C169.676 317.564 169.039 317.92 168.5 318.4C167.124 319.682 166.27 321.427 166.1 323.3C165.9 324.29 165.9 325.31 166.1 326.3Z" fill="white"/>
<path d="M143.6 354.2L139 353.6C139.1 353.5 139.3 353.4 139.5 353.2C139.691 353.005 139.828 352.764 139.9 352.5C140 352.3 140.1 352 140.2 351.8C140.3 351.6 140.3 351.3 140.4 351L142.2 337.7V336.9C142.216 336.63 142.182 336.359 142.1 336.1C142.086 335.87 142.026 335.645 141.923 335.439C141.819 335.233 141.676 335.05 141.5 334.9L147.1 335.7L150.8 345.6C151.1 346.4 151.4 347.2 151.6 347.9C151.8 348.6 152.1 349.5 152.4 350.2C152.423 349.128 152.523 348.058 152.7 347C152.8 345.7 153 344.2 153.3 342.4L154.1 336.6L157.7 337.1L155.2 355.8L150.5 355.2L146.6 344.8C146.37 344.211 146.17 343.61 146 343C145.8 342.3 145.6 341.5 145.3 340.6C145.2 341.4 145.1 342.4 145 343.6C144.9 344.8 144.7 346.1 144.5 347.7L143.6 354.2Z" fill="white"/>
<path d="M174.6 341.6C176.113 343.813 176.755 346.506 176.405 349.164C176.054 351.821 174.735 354.255 172.7 356C170.83 357.372 168.493 357.947 166.2 357.6C165.06 357.474 163.957 357.116 162.96 356.548C161.962 355.981 161.091 355.216 160.4 354.3C159.586 353.229 159.005 352 158.695 350.691C158.385 349.382 158.353 348.022 158.6 346.7C158.722 345.375 159.113 344.088 159.749 342.919C160.386 341.75 161.254 340.723 162.3 339.9C163.207 339.221 164.24 338.73 165.339 338.456C166.438 338.181 167.581 338.128 168.7 338.3C169.861 338.402 170.987 338.748 172.004 339.317C173.021 339.886 173.906 340.664 174.6 341.6ZM162.4 350C162.586 350.823 162.925 351.603 163.4 352.3C163.769 352.874 164.26 353.36 164.837 353.724C165.414 354.087 166.063 354.32 166.74 354.406C167.417 354.492 168.104 354.428 168.754 354.22C169.403 354.012 169.999 353.664 170.5 353.2C171.823 352.014 172.645 350.37 172.8 348.6C173.114 346.835 172.758 345.016 171.8 343.5C171.419 342.946 170.931 342.475 170.364 342.114C169.797 341.753 169.163 341.51 168.5 341.4C167.817 341.304 167.122 341.362 166.464 341.569C165.807 341.777 165.204 342.129 164.7 342.6C163.396 343.8 162.578 345.437 162.4 347.2C162.249 348.127 162.249 349.073 162.4 350Z" fill="white"/>
<path d="M184.6 359.7L181.1 359.2L183.2 343.6L178.5 343L178.9 340L192.4 341.8L190.8 344.7L186.7 344.1L184.6 359.7Z" fill="white"/>
<path d="M143.3 359.6C149.3 360.4 151.9 363.5 151.2 368.8C150.8 371.5 149.7 373.6 147.8 374.8C145.76 376.03 143.349 376.491 141 376.1L136 375.4C136.1 375.3 136.3 375.2 136.4 375.1C136.5 375 136.7 374.8 136.8 374.5L137.1 373.9C137.189 373.679 137.224 373.438 137.2 373.2L138.8 361.4V360.7C138.816 360.463 138.782 360.224 138.7 360C138.66 359.588 138.484 359.202 138.2 358.9L143.3 359.6ZM140.4 373.2L141.7 373.4C142.425 373.564 143.178 373.564 143.903 373.4C144.629 373.236 145.308 372.912 145.893 372.452C146.477 371.993 146.951 371.408 147.281 370.742C147.611 370.075 147.789 369.344 147.8 368.6C148.093 367.117 147.807 365.579 147 364.3C146.548 363.736 145.988 363.269 145.353 362.925C144.717 362.582 144.019 362.369 143.3 362.3L142 362.1L140.4 373.2Z" fill="white"/>
<path d="M155.3 378L152.1 377.6L154 363.5V362.8C154.016 362.562 153.982 362.324 153.9 362.1C153.836 361.695 153.663 361.314 153.4 361L157.4 361.5L155.3 378Z" fill="white"/>
<path d="M158.6 378.3L157.8 375.2C158.912 375.702 160.091 376.038 161.3 376.2C163.2 376.5 164.2 375.9 164.4 374.5C164.442 374.22 164.428 373.935 164.36 373.66C164.291 373.385 164.169 373.127 164 372.9C163.818 372.713 163.617 372.546 163.4 372.4C163.133 372.154 162.829 371.952 162.5 371.8C161.939 371.512 161.404 371.178 160.9 370.8C160.581 370.556 160.28 370.288 160 370C159.591 369.505 159.298 368.925 159.143 368.302C158.987 367.679 158.972 367.029 159.1 366.4C159.159 365.722 159.381 365.068 159.747 364.493C160.112 363.919 160.611 363.441 161.2 363.1C162.581 362.372 164.176 362.16 165.7 362.5L166.9 362.8C167.414 362.921 167.916 363.089 168.4 363.3L168 366.1C167.5 365.9 167.1 365.7 166.6 365.5C166.114 365.32 165.611 365.186 165.1 365.1C164.427 365 163.74 365.069 163.1 365.3C162.859 365.431 162.652 365.617 162.496 365.843C162.34 366.069 162.238 366.328 162.2 366.6C162.145 366.911 162.171 367.231 162.276 367.529C162.381 367.827 162.562 368.092 162.8 368.3C162.982 368.487 163.183 368.654 163.4 368.8C163.7 369 164.1 369.2 164.6 369.5C165.049 369.776 165.483 370.077 165.9 370.4C166.248 370.647 166.552 370.952 166.8 371.3C167.45 372.269 167.7 373.451 167.5 374.6C167.44 375.293 167.23 375.965 166.884 376.57C166.539 377.174 166.067 377.696 165.5 378.1C164.058 378.962 162.344 379.248 160.7 378.9C159.972 378.815 159.263 378.612 158.6 378.3Z" fill="white"/>
<path d="M175.4 380.7L172.3 380.3L174.2 366.5L170.1 365.9L170.5 363.2L182.4 364.8L181 367.3L177.4 366.8L175.4 380.7Z" fill="white"/>
<path d="M183.5 367.5C183.567 366.998 183.533 366.488 183.4 366C183.367 365.635 183.228 365.287 183 365L187 365.5L185.6 376C185.426 376.91 185.531 377.851 185.9 378.7C186.198 379.085 186.575 379.4 187.007 379.625C187.439 379.849 187.914 379.977 188.4 380C190.6 380.3 191.9 379.3 192.2 377L193.6 366.5L196.8 366.9L195.4 377.6C195.351 378.388 195.128 379.155 194.748 379.846C194.368 380.538 193.839 381.137 193.2 381.6C192.428 382.112 191.562 382.465 190.651 382.637C189.741 382.809 188.805 382.796 187.9 382.6C183.8 382 181.9 379.8 182.5 375.8L183.5 367.5Z" fill="white"/>
<path d="M208.6 385.2L204.7 384.7L202.7 378.4C202.65 378.154 202.528 377.927 202.351 377.749C202.173 377.572 201.946 377.45 201.7 377.4L201.3 377.3L200.4 384L196.4 383.5C196.728 383.287 196.974 382.97 197.1 382.6C197.218 382.375 197.318 382.141 197.4 381.9C197.5 381.7 197.5 381.4 197.6 381.2L199.2 369.5V368.8C199.216 368.562 199.182 368.324 199.1 368.1C199.036 367.695 198.863 367.314 198.6 367L203.8 367.7C207.8 368.2 209.5 370 209.1 373.1C208.98 374.149 208.524 375.132 207.8 375.9C207.172 376.595 206.325 377.054 205.4 377.2C205.724 377.501 205.965 377.879 206.1 378.3L208.6 385.2ZM201.6 375L202.3 375.1C203.09 375.24 203.904 375.098 204.6 374.7C204.903 374.522 205.16 374.275 205.351 373.98C205.542 373.685 205.661 373.349 205.7 373C205.9 371.4 205 370.5 203.1 370.2L202.3 370.1L201.6 375Z" fill="white"/>
<path d="M219.4 377.8C220.213 378.074 220.892 378.646 221.3 379.4C221.689 380.136 221.83 380.978 221.7 381.8C221.644 382.442 221.444 383.063 221.115 383.617C220.786 384.171 220.337 384.644 219.8 385C218.265 386.002 216.398 386.361 214.6 386L209.1 385.3C209.4 385.2 209.6 384.9 209.9 384.4C210.011 384.218 210.079 384.013 210.1 383.8C210.2 383.6 210.2 383.3 210.3 383.1L211.9 371.4C212 370.939 212 370.462 211.9 370C211.86 369.588 211.684 369.202 211.4 368.9L217.6 369.7C221.2 370.2 222.8 371.8 222.4 374.4C222.319 375.195 221.966 375.937 221.4 376.5C220.84 377.079 220.156 377.524 219.4 377.8ZM215 372L214.5 376L215.6 376.2C216.096 376.277 216.598 376.311 217.1 376.3C217.459 376.324 217.814 376.218 218.1 376C218.367 375.825 218.588 375.588 218.745 375.31C218.901 375.031 218.989 374.72 219 374.4C219.2 373.2 218.4 372.5 216.6 372.2L215 372ZM215.1 383.3C215.88 383.43 216.68 383.325 217.4 383C217.686 382.837 217.926 382.605 218.101 382.326C218.275 382.047 218.378 381.729 218.4 381.4C218.482 381.035 218.46 380.654 218.337 380.3C218.213 379.946 217.992 379.635 217.7 379.4C216.972 378.953 216.151 378.679 215.3 378.6L214.1 378.4L213.5 383L215.1 383.3Z" fill="white"/>
<path d="M197.6 476C198.714 477.24 200.24 478.034 201.894 478.236C203.548 478.438 205.22 478.035 206.6 477.1L197.3 466.9C196.276 468.212 195.744 469.842 195.799 471.505C195.854 473.168 196.491 474.759 197.6 476Z" fill="#BCBEC0"/>
<path d="M207.9 466.6C206.786 465.361 205.26 464.567 203.606 464.364C201.952 464.162 200.28 464.566 198.9 465.5L208.2 475.7C209.243 474.397 209.787 472.763 209.732 471.095C209.677 469.426 209.027 467.832 207.9 466.6Z" fill="#BCBEC0"/>
<path d="M197.6 138.3C198.714 139.54 200.24 140.334 201.894 140.536C203.548 140.738 205.22 140.335 206.6 139.4L197.3 129.2C196.276 130.512 195.744 132.141 195.799 133.805C195.854 135.468 196.491 137.059 197.6 138.3Z" fill="#BCBEC0"/>
<path d="M207.9 128.9C206.786 127.661 205.26 126.866 203.606 126.664C201.952 126.462 200.28 126.866 198.9 127.8L208.2 138C209.243 136.697 209.787 135.063 209.732 133.395C209.677 131.726 209.027 130.132 207.9 128.9Z" fill="#BCBEC0"/>
<path d="M200.1 220.9C214.349 220.9 225.9 209.349 225.9 195.1C225.9 180.851 214.349 169.3 200.1 169.3C185.851 169.3 174.3 180.851 174.3 195.1C174.3 209.349 185.851 220.9 200.1 220.9Z" fill="#939598"/>
<path opacity="0.4" d="M436.4 196.4C436.4 199.171 435.854 201.915 434.794 204.475C433.734 207.035 432.179 209.361 430.22 211.32C428.261 213.28 425.935 214.834 423.375 215.894C420.815 216.955 418.071 217.5 415.3 217.5C415.3 217.5 358.8 209.7 298.9 207.6C239 205.5 202.6 217.5 202.6 217.5C199.829 217.5 197.085 216.955 194.525 215.894C191.965 214.834 189.639 213.28 187.68 211.32C185.721 209.361 184.167 207.035 183.106 204.475C182.046 201.915 181.5 199.171 181.5 196.4C181.5 193.629 182.046 190.886 183.106 188.326C184.167 185.766 185.721 183.44 187.68 181.48C189.639 179.521 191.965 177.967 194.525 176.907C197.085 175.846 199.829 175.3 202.6 175.3C234.902 171.564 267.383 169.594 299.9 169.4C349.9 169.4 415.3 175.3 415.3 175.3C420.896 175.3 426.263 177.523 430.22 181.48C434.177 185.437 436.4 190.804 436.4 196.4Z" fill="#808285"/>
<path d="M200.1 217.5C212.471 217.5 222.5 207.471 222.5 195.1C222.5 182.729 212.471 172.7 200.1 172.7C187.729 172.7 177.7 182.729 177.7 195.1C177.7 207.471 187.729 217.5 200.1 217.5Z" fill="url(#paint41_radial)"/>
<path d="M438.6 194.7C438.6 200.296 436.377 205.663 432.42 209.62C428.463 213.577 423.096 215.8 417.5 215.8C417.5 215.8 361 208 301.1 205.9C241.2 203.8 204.8 215.8 204.8 215.8C199.204 215.8 193.837 213.577 189.88 209.62C185.923 205.663 183.7 200.296 183.7 194.7C183.7 189.104 185.923 183.737 189.88 179.78C193.837 175.823 199.204 173.6 204.8 173.6C237.102 169.864 269.583 167.894 302.1 167.7C352.1 167.7 417.5 173.6 417.5 173.6C420.275 173.587 423.024 174.124 425.59 175.179C428.156 176.235 430.488 177.789 432.449 179.751C434.411 181.713 435.965 184.044 437.021 186.61C438.076 189.176 438.613 191.926 438.6 194.7Z" fill="url(#paint42_linear)"/>
<defs>
<linearGradient id="paint0_linear" x1="59.9507" y1="477.248" x2="346.473" y2="90.0555" gradientUnits="userSpaceOnUse">
<stop stop-color="white" stop-opacity="0"/>
<stop offset="0.53" stop-color="white" stop-opacity="0.5"/>
<stop offset="1" stop-color="white" stop-opacity="0"/>
</linearGradient>
<linearGradient id="paint1_linear" x1="230114" y1="193137" x2="230114" y2="319184" gradientUnits="userSpaceOnUse">
<stop stop-color="white" stop-opacity="0"/>
<stop offset="0.53" stop-color="white" stop-opacity="0.5"/>
<stop offset="1" stop-color="white" stop-opacity="0"/>
</linearGradient>
<linearGradient id="paint2_linear" x1="232315" y1="192838" x2="232315" y2="318917" gradientUnits="userSpaceOnUse">
<stop stop-color="white" stop-opacity="0"/>
<stop offset="0.53" stop-color="white" stop-opacity="0.5"/>
<stop offset="1" stop-color="white" stop-opacity="0"/>
</linearGradient>
<linearGradient id="paint3_linear" x1="234487" y1="192424" x2="234487" y2="318467" gradientUnits="userSpaceOnUse">
<stop stop-color="white" stop-opacity="0"/>
<stop offset="0.53" stop-color="white" stop-opacity="0.5"/>
<stop offset="1" stop-color="white" stop-opacity="0"/>
</linearGradient>
<linearGradient id="paint4_linear" x1="236687" y1="192072" x2="236687" y2="318119" gradientUnits="userSpaceOnUse">
<stop stop-color="white" stop-opacity="0"/>
<stop offset="0.53" stop-color="white" stop-opacity="0.5"/>
<stop offset="1" stop-color="white" stop-opacity="0"/>
</linearGradient>
<linearGradient id="paint5_linear" x1="238874" y1="191723" x2="238874" y2="317770" gradientUnits="userSpaceOnUse">
<stop stop-color="white" stop-opacity="0"/>
<stop offset="0.53" stop-color="white" stop-opacity="0.5"/>
<stop offset="1" stop-color="white" stop-opacity="0"/>
</linearGradient>
<linearGradient id="paint6_linear" x1="241048" y1="191375" x2="241048" y2="317422" gradientUnits="userSpaceOnUse">
<stop stop-color="white" stop-opacity="0"/>
<stop offset="0.53" stop-color="white" stop-opacity="0.5"/>
<stop offset="1" stop-color="white" stop-opacity="0"/>
</linearGradient>
<linearGradient id="paint7_linear" x1="243226" y1="191011" x2="243226" y2="317058" gradientUnits="userSpaceOnUse">
<stop stop-color="white" stop-opacity="0"/>
<stop offset="0.53" stop-color="white" stop-opacity="0.5"/>
<stop offset="1" stop-color="white" stop-opacity="0"/>
</linearGradient>
<linearGradient id="paint8_linear" x1="245412" y1="190696" x2="245412" y2="316791" gradientUnits="userSpaceOnUse">
<stop stop-color="white" stop-opacity="0"/>
<stop offset="0.53" stop-color="white" stop-opacity="0.5"/>
<stop offset="1" stop-color="white" stop-opacity="0"/>
</linearGradient>
<linearGradient id="paint9_linear" x1="247612" y1="190294" x2="247612" y2="316341" gradientUnits="userSpaceOnUse">
<stop stop-color="white" stop-opacity="0"/>
<stop offset="0.53" stop-color="white" stop-opacity="0.5"/>
<stop offset="1" stop-color="white" stop-opacity="0"/>
</linearGradient>
<linearGradient id="paint10_linear" x1="249802" y1="189946" x2="249802" y2="315993" gradientUnits="userSpaceOnUse">
<stop stop-color="white" stop-opacity="0"/>
<stop offset="0.53" stop-color="white" stop-opacity="0.5"/>
<stop offset="1" stop-color="white" stop-opacity="0"/>
</linearGradient>
<linearGradient id="paint11_linear" x1="251988" y1="189597" x2="251988" y2="315644" gradientUnits="userSpaceOnUse">
<stop stop-color="white" stop-opacity="0"/>
<stop offset="0.53" stop-color="white" stop-opacity="0.5"/>
<stop offset="1" stop-color="white" stop-opacity="0"/>
</linearGradient>
<linearGradient id="paint12_linear" x1="254245" y1="189233" x2="254245" y2="315296" gradientUnits="userSpaceOnUse">
<stop stop-color="white" stop-opacity="0"/>
<stop offset="0.53" stop-color="white" stop-opacity="0.5"/>
<stop offset="1" stop-color="white" stop-opacity="0"/>
</linearGradient>
<linearGradient id="paint13_linear" x1="256354" y1="188933" x2="256354" y2="315013" gradientUnits="userSpaceOnUse">
<stop stop-color="white" stop-opacity="0"/>
<stop offset="0.53" stop-color="white" stop-opacity="0.5"/>
<stop offset="1" stop-color="white" stop-opacity="0"/>
</linearGradient>
<linearGradient id="paint14_linear" x1="258526" y1="188521" x2="258526" y2="314564" gradientUnits="userSpaceOnUse">
<stop stop-color="white" stop-opacity="0"/>
<stop offset="0.53" stop-color="white" stop-opacity="0.5"/>
<stop offset="1" stop-color="white" stop-opacity="0"/>
</linearGradient>
<linearGradient id="paint15_linear" x1="260727" y1="188168" x2="260727" y2="314215" gradientUnits="userSpaceOnUse">
<stop stop-color="white" stop-opacity="0"/>
<stop offset="0.53" stop-color="white" stop-opacity="0.5"/>
<stop offset="1" stop-color="white" stop-opacity="0"/>
</linearGradient>
<linearGradient id="paint16_linear" x1="262916" y1="187820" x2="262916" y2="313867" gradientUnits="userSpaceOnUse">
<stop stop-color="white" stop-opacity="0"/>
<stop offset="0.53" stop-color="white" stop-opacity="0.5"/>
<stop offset="1" stop-color="white" stop-opacity="0"/>
</linearGradient>
<linearGradient id="paint17_linear" x1="265087" y1="187471" x2="265087" y2="313518" gradientUnits="userSpaceOnUse">
<stop stop-color="white" stop-opacity="0"/>
<stop offset="0.53" stop-color="white" stop-opacity="0.5"/>
<stop offset="1" stop-color="white" stop-opacity="0"/>
</linearGradient>
<linearGradient id="paint18_linear" x1="267265" y1="187107" x2="267265" y2="313154" gradientUnits="userSpaceOnUse">
<stop stop-color="white" stop-opacity="0"/>
<stop offset="0.53" stop-color="white" stop-opacity="0.5"/>
<stop offset="1" stop-color="white" stop-opacity="0"/>
</linearGradient>
<linearGradient id="paint19_linear" x1="186400" y1="203088" x2="186400" y2="329135" gradientUnits="userSpaceOnUse">
<stop stop-color="white" stop-opacity="0"/>
<stop offset="0.53" stop-color="white" stop-opacity="0.5"/>
<stop offset="1" stop-color="white" stop-opacity="0"/>
</linearGradient>
<linearGradient id="paint20_linear" x1="184055" y1="203393" x2="184055" y2="329488" gradientUnits="userSpaceOnUse">
<stop stop-color="white" stop-opacity="0"/>
<stop offset="0.53" stop-color="white" stop-opacity="0.5"/>
<stop offset="1" stop-color="white" stop-opacity="0"/>
</linearGradient>
<linearGradient id="paint21_linear" x1="181719" y1="203623" x2="181719" y2="329670" gradientUnits="userSpaceOnUse">
<stop stop-color="white" stop-opacity="0"/>
<stop offset="0.53" stop-color="white" stop-opacity="0.5"/>
<stop offset="1" stop-color="white" stop-opacity="0"/>
</linearGradient>
<linearGradient id="paint22_linear" x1="179362" y1="203894" x2="179362" y2="329941" gradientUnits="userSpaceOnUse">
<stop stop-color="white" stop-opacity="0"/>
<stop offset="0.53" stop-color="white" stop-opacity="0.5"/>
<stop offset="1" stop-color="white" stop-opacity="0"/>
</linearGradient>
<linearGradient id="paint23_linear" x1="188581" y1="202724" x2="188581" y2="328767" gradientUnits="userSpaceOnUse">
<stop stop-color="white" stop-opacity="0"/>
<stop offset="0.53" stop-color="white" stop-opacity="0.5"/>
<stop offset="1" stop-color="white" stop-opacity="0"/>
</linearGradient>
<linearGradient id="paint24_linear" x1="190767" y1="202409" x2="190767" y2="328504" gradientUnits="userSpaceOnUse">
<stop stop-color="white" stop-opacity="0"/>
<stop offset="0.53" stop-color="white" stop-opacity="0.5"/>
<stop offset="1" stop-color="white" stop-opacity="0"/>
</linearGradient>
<linearGradient id="paint25_linear" x1="192953" y1="202008" x2="192953" y2="328055" gradientUnits="userSpaceOnUse">
<stop stop-color="white" stop-opacity="0"/>
<stop offset="0.53" stop-color="white" stop-opacity="0.5"/>
<stop offset="1" stop-color="white" stop-opacity="0"/>
</linearGradient>
<linearGradient id="paint26_linear" x1="195154" y1="201660" x2="195154" y2="327706" gradientUnits="userSpaceOnUse">
<stop stop-color="white" stop-opacity="0"/>
<stop offset="0.53" stop-color="white" stop-opacity="0.5"/>
<stop offset="1" stop-color="white" stop-opacity="0"/>
</linearGradient>
<linearGradient id="paint27_linear" x1="197326" y1="201311" x2="197326" y2="327358" gradientUnits="userSpaceOnUse">
<stop stop-color="white" stop-opacity="0"/>
<stop offset="0.53" stop-color="white" stop-opacity="0.5"/>
<stop offset="1" stop-color="white" stop-opacity="0"/>
</linearGradient>
<linearGradient id="paint28_linear" x1="199506" y1="200947" x2="199506" y2="326994" gradientUnits="userSpaceOnUse">
<stop stop-color="white" stop-opacity="0"/>
<stop offset="0.53" stop-color="white" stop-opacity="0.5"/>
<stop offset="1" stop-color="white" stop-opacity="0"/>
</linearGradient>
<linearGradient id="paint29_linear" x1="201706" y1="200646" x2="201706" y2="326726" gradientUnits="userSpaceOnUse">
<stop stop-color="white" stop-opacity="0"/>
<stop offset="0.53" stop-color="white" stop-opacity="0.5"/>
<stop offset="1" stop-color="white" stop-opacity="0"/>
</linearGradient>
<linearGradient id="paint30_linear" x1="203878" y1="200231" x2="203878" y2="326277" gradientUnits="userSpaceOnUse">
<stop stop-color="white" stop-opacity="0"/>
<stop offset="0.53" stop-color="white" stop-opacity="0.5"/>
<stop offset="1" stop-color="white" stop-opacity="0"/>
</linearGradient>
<linearGradient id="paint31_linear" x1="206082" y1="199882" x2="206082" y2="325929" gradientUnits="userSpaceOnUse">
<stop stop-color="white" stop-opacity="0"/>
<stop offset="0.53" stop-color="white" stop-opacity="0.5"/>
<stop offset="1" stop-color="white" stop-opacity="0"/>
</linearGradient>
<linearGradient id="paint32_linear" x1="208268" y1="199534" x2="208268" y2="325580" gradientUnits="userSpaceOnUse">
<stop stop-color="white" stop-opacity="0"/>
<stop offset="0.53" stop-color="white" stop-opacity="0.5"/>
<stop offset="1" stop-color="white" stop-opacity="0"/>
</linearGradient>
<linearGradient id="paint33_linear" x1="210440" y1="199185" x2="210440" y2="325232" gradientUnits="userSpaceOnUse">
<stop stop-color="white" stop-opacity="0"/>
<stop offset="0.53" stop-color="white" stop-opacity="0.5"/>
<stop offset="1" stop-color="white" stop-opacity="0"/>
</linearGradient>
<linearGradient id="paint34_linear" x1="212620" y1="198821" x2="212620" y2="324864" gradientUnits="userSpaceOnUse">
<stop stop-color="white" stop-opacity="0"/>
<stop offset="0.53" stop-color="white" stop-opacity="0.5"/>
<stop offset="1" stop-color="white" stop-opacity="0"/>
</linearGradient>
<linearGradient id="paint35_linear" x1="214806" y1="198504" x2="214806" y2="324599" gradientUnits="userSpaceOnUse">
<stop stop-color="white" stop-opacity="0"/>
<stop offset="0.53" stop-color="white" stop-opacity="0.5"/>
<stop offset="1" stop-color="white" stop-opacity="0"/>
</linearGradient>
<linearGradient id="paint36_linear" x1="217007" y1="198105" x2="217007" y2="324151" gradientUnits="userSpaceOnUse">
<stop stop-color="white" stop-opacity="0"/>
<stop offset="0.53" stop-color="white" stop-opacity="0.5"/>
<stop offset="1" stop-color="white" stop-opacity="0"/>
</linearGradient>
<linearGradient id="paint37_linear" x1="219193" y1="197756" x2="219193" y2="323803" gradientUnits="userSpaceOnUse">
<stop stop-color="white" stop-opacity="0"/>
<stop offset="0.53" stop-color="white" stop-opacity="0.5"/>
<stop offset="1" stop-color="white" stop-opacity="0"/>
</linearGradient>
<linearGradient id="paint38_linear" x1="221368" y1="197408" x2="221368" y2="323454" gradientUnits="userSpaceOnUse">
<stop stop-color="white" stop-opacity="0"/>
<stop offset="0.53" stop-color="white" stop-opacity="0.5"/>
<stop offset="1" stop-color="white" stop-opacity="0"/>
</linearGradient>
<linearGradient id="paint39_linear" x1="223554" y1="197059" x2="223554" y2="323106" gradientUnits="userSpaceOnUse">
<stop stop-color="white" stop-opacity="0"/>
<stop offset="0.53" stop-color="white" stop-opacity="0.5"/>
<stop offset="1" stop-color="white" stop-opacity="0"/>
</linearGradient>
<linearGradient id="paint40_linear" x1="225746" y1="196742" x2="225746" y2="322821" gradientUnits="userSpaceOnUse">
<stop stop-color="white" stop-opacity="0"/>
<stop offset="0.53" stop-color="white" stop-opacity="0.5"/>
<stop offset="1" stop-color="white" stop-opacity="0"/>
</linearGradient>
<radialGradient id="paint41_radial" cx="0" cy="0" r="1" gradientUnits="userSpaceOnUse" gradientTransform="translate(200.1 195.1) scale(22.44)">
<stop stop-color="#939598"/>
<stop offset="1" stop-color="#D1D3D4"/>
</radialGradient>
<linearGradient id="paint42_linear" x1="313.55" y1="235.51" x2="311.05" y2="193.01" gradientUnits="userSpaceOnUse">
<stop stop-color="#939598"/>
<stop offset="0.21" stop-color="#A3A5A7"/>
<stop offset="0.72" stop-color="#C4C6C8"/>
<stop offset="1" stop-color="#D1D3D4"/>
</linearGradient>
</defs>
</svg>
