<svg id="Layer_1" data-name="Layer 1" xmlns="http://www.w3.org/2000/svg" viewBox="0 0 110 110"><title>Artboard 3</title><path d="M55,42.5c-9.12,0-16,6.81-16,18.5s6.88,18.5,16,18.5S71,72.69,71,61,64.12,42.5,55,42.5Zm0,33c-6.84,0-12-5.09-12-14.5s5.16-14.5,12-14.5S67,51.59,67,61,61.84,75.5,55,75.5Zm48-42H7a2,2,0,0,0-2,2v51a2,2,0,0,0,2,2h96a2,2,0,0,0,2-2v-51A2,2,0,0,0,103,33.5Zm-94,4h9.83A12,12,0,0,1,9,47.33Zm0,47V74.67a12,12,0,0,1,9.83,9.83Zm92,0H91.17A12,12,0,0,1,101,74.67Zm0-13.86A16,16,0,0,0,87.14,84.5H22.86A16,16,0,0,0,9,70.64V51.36A16,16,0,0,0,22.86,37.5H87.14A16,16,0,0,0,101,51.36Zm0-23.31a12,12,0,0,1-9.83-9.83H101ZM12,31.5H98a2,2,0,0,0,0-4H12a2,2,0,0,0,0,4Zm5-6H93a2,2,0,0,0,0-4H17a2,2,0,0,0,0,4Z"/></svg>