<svg id="Layer_1" data-name="Layer 1" xmlns="http://www.w3.org/2000/svg" viewBox="0 0 110 110"><title>Artboard 1</title><path d="M92,51.51H80V19.59a2,2,0,0,0-3.41-1.41l-4.78,4.76-4.59-4.57a2,2,0,0,0-2.82,0L60,22.75l-4.59-4.57a2,2,0,0,0-2.82,0L48,22.75l-4.59-4.57a2,2,0,0,0-2.82,0l-4.65,4.63-4.59-4.57a2,2,0,0,0-2.82,0L24,22.75l-4.59-4.57A2,2,0,0,0,16,19.59V83.43a9,9,0,0,0,9,9H85a9,9,0,0,0,9-9V53.5A2,2,0,0,0,92,51.51ZM25,88.42a5,5,0,0,1-5-5v-59L22.59,27a2,2,0,0,0,2.82,0l4.53-4.52,4.59,4.58a2,2,0,0,0,2.82,0L42,22.41,46.59,27a2,2,0,0,0,2.82,0L54,22.41,58.59,27a2,2,0,0,0,2.82,0l4.4-4.39,4.59,4.57a2,2,0,0,0,2.82,0L76,24.41v59a8.93,8.93,0,0,0,1.52,5Zm65-5a5,5,0,0,1-10,0V55.5H90ZM48,50.51a2,2,0,0,1-2-2,2,2,0,0,0-4,0,6,6,0,0,0,4,5.63v.35a2,2,0,0,0,4,0v-.35a6,6,0,0,0-2-11.62,2,2,0,1,1,2-2,2,2,0,0,0,4,0,6,6,0,0,0-4-5.64v-.35a2,2,0,0,0-4,0v.35a6,6,0,0,0,2,11.62,2,2,0,1,1,0,4Zm17,10H31a2,2,0,1,0,0,4H65a2,2,0,1,0,0-4Zm0,9H31a2,2,0,1,0,0,4H65a2,2,0,1,0,0-4Zm-14,9H31a2,2,0,1,0,0,4H51a2,2,0,1,0,0-4Z"/></svg>