<svg id="Layer_1" data-name="Layer 1" xmlns="http://www.w3.org/2000/svg" viewBox="0 0 110 110"><title>Artboard 4</title><path d="M33.53,35.75v.75a2,2,0,0,0,4,0v-.75h.75a2,2,0,0,0,0-4h-.75V31a2,2,0,0,0-4,0v.75h-.75a2,2,0,0,0,0,4Zm23.28,0h.75v.75a2,2,0,0,0,4,0v-.75h.75a2,2,0,1,0,0-4h-.75V31a2,2,0,0,0-4,0v.75h-.75a2,2,0,0,0,0,4ZM81.06,53.5a8.77,8.77,0,0,0-7-7.82V32.5a14,14,0,0,0-14-14H35a14,14,0,0,0-14,14V45.67a8.77,8.77,0,0,0-7,8.58V77.5a2,2,0,0,0,2,2H58.86a19.27,19.27,0,1,0,22.2-26Zm-8.72-4A4.76,4.76,0,0,1,76.92,53h-.41c-.47,0-.93,0-1.4.06l-.35,0c-.52,0-1,.12-1.55.21h-.07c-.53.1-1,.23-1.56.37l-.43.13c-.38.11-.75.24-1.12.37l-.44.17c-.48.19-1,.39-1.43.62l-.2.11-.89.47V54.25a4.76,4.76,0,0,1,4.76-4.75ZM28,75.5H18V54.25a4.75,4.75,0,0,1,4.75-4.75h.51A4.75,4.75,0,0,1,28,54.25ZM25,45.68V32.5a10,10,0,0,1,10-10h25a10,10,0,0,1,10,10V45.67a8.77,8.77,0,0,0-7,8.58v.25H32v-.25A8.75,8.75,0,0,0,25,45.68ZM57.87,68.21l-.06.29c-.11.54-.19,1.1-.25,1.65l0,.36a16.9,16.9,0,0,0-.09,1.74c0,.53,0,1.06.07,1.58,0,.16,0,.32.05.48,0,.36.08.72.14,1.07,0,0,0,.08,0,.12H32v-8H58C58,67.73,57.92,68,57.87,68.21Zm2.94-6.81q-.42.6-.78,1.23l-.27.49-.22.38H32v-5h31v.16c-.21.2-.4.42-.59.64l-.31.32A17.45,17.45,0,0,0,61,61.06ZM76.72,87.5A15.2,15.2,0,0,1,62.17,76.88a14.81,14.81,0,0,1-.72-4.63,15.16,15.16,0,0,1,5-11.26l0,0a15.19,15.19,0,0,1,10.26-4,13.93,13.93,0,0,1,2.1.15,15.25,15.25,0,0,1-2.1,30.35Zm0-21.25a2,2,0,0,1,2,2,2,2,0,0,0,4,0,6,6,0,0,0-4-5.65v-.35a2,2,0,0,0-4,0v.35a6,6,0,0,0,2,11.65,2,2,0,1,1-2,2,2,2,0,0,0-4,0,6,6,0,0,0,4,5.65v.35a2,2,0,0,0,4,0V81.9a6,6,0,0,0-2-11.65,2,2,0,0,1,0-4Z"/></svg>