<svg id="Layer_1" data-name="Layer 1" xmlns="http://www.w3.org/2000/svg" viewBox="0 0 110 110"><title>Artboard 2</title><path d="M44.44,69.5H41.56a.56.56,0,0,0-.56.56v2.88a.56.56,0,0,0,.56.56h2.88a.56.56,0,0,0,.56-.56V70.06A.56.56,0,0,0,44.44,69.5Zm6,0H47.56a.56.56,0,0,0-.56.56v2.88a.56.56,0,0,0,.56.56h2.88a.56.56,0,0,0,.56-.56V70.06A.56.56,0,0,0,50.44,69.5Zm6,0H53.56a.56.56,0,0,0-.56.56v2.88a.56.56,0,0,0,.56.56h2.88a.56.56,0,0,0,.56-.56V70.06A.56.56,0,0,0,56.44,69.5Zm-12,6H41.56a.56.56,0,0,0-.56.56v2.88a.56.56,0,0,0,.56.56h2.88a.56.56,0,0,0,.56-.56V76.06A.56.56,0,0,0,44.44,75.5Zm6,0H47.56a.56.56,0,0,0-.56.56v2.88a.56.56,0,0,0,.56.56h2.88a.56.56,0,0,0,.56-.56V76.06A.56.56,0,0,0,50.44,75.5Zm6,0H53.56a.56.56,0,0,0-.56.56v2.88a.56.56,0,0,0,.56.56h2.88a.56.56,0,0,0,.56-.56V76.06A.56.56,0,0,0,56.44,75.5Zm-12,6H41.56a.56.56,0,0,0-.56.56v2.88a.56.56,0,0,0,.56.56h2.88a.56.56,0,0,0,.56-.56V82.06A.56.56,0,0,0,44.44,81.5Zm6,0H47.56a.56.56,0,0,0-.56.56v2.88a.56.56,0,0,0,.56.56h2.88a.56.56,0,0,0,.56-.56V82.06A.56.56,0,0,0,50.44,81.5Zm6,0H53.56a.56.56,0,0,0-.56.56v2.88a.56.56,0,0,0,.56.56h2.88a.56.56,0,0,0,.56-.56V82.06A.56.56,0,0,0,56.44,81.5ZM75,37.5H71V36.39a3.89,3.89,0,0,0-3.88-3.89H63v-13a2,2,0,0,0-1.23-1.85,2,2,0,0,0-2.18.44L57,20.67l-2.59-2.58a2,2,0,0,0-2.82,0L49,20.67l-2.59-2.58a2,2,0,0,0-2.82,0L41,20.67l-2.59-2.58A2,2,0,0,0,35,19.5v13H30.89A3.89,3.89,0,0,0,27,36.39V88.61a3.89,3.89,0,0,0,3.89,3.89H67.12A3.89,3.89,0,0,0,71,88.61V84.5h4a8,8,0,0,0,8-8v-31A8,8,0,0,0,75,37.5ZM39,24.33l.59.59a2,2,0,0,0,2.82,0L45,22.33l2.59,2.59a2,2,0,0,0,2.82,0L53,22.33l2.59,2.59a2,2,0,0,0,2.82,0l.59-.59V32.5H39ZM59,88.5H39V67.83a2.33,2.33,0,0,1,2.33-2.33H56.67A2.33,2.33,0,0,1,59,67.83Zm8-51v51H63V67.83a6.34,6.34,0,0,0-6.33-6.33H41.33A6.34,6.34,0,0,0,35,67.83V88.5H31v-52H67Zm12,39a4,4,0,0,1-4,4H71v-39h4a4,4,0,0,1,4,4Zm-4-32a2,2,0,0,0-2,2v29a2,2,0,0,0,4,0v-29A2,2,0,0,0,75,44.5Zm-37.17-2A2.83,2.83,0,0,0,35,45.33v8.34a2.83,2.83,0,0,0,2.83,2.83H60.17A2.83,2.83,0,0,0,63,53.67V45.33a2.83,2.83,0,0,0-2.83-2.83ZM59,52.5H39v-6H59Z"/></svg>