<svg id="Layer_1" data-name="Layer 1" xmlns="http://www.w3.org/2000/svg" viewBox="0 0 110 110"><title>Artboard 5</title><path d="M72.22,33.08a2,2,0,0,0-.84-1.47,28.16,28.16,0,0,0-36.47,3.14A28.72,28.72,0,0,0,31.8,71.51a2,2,0,0,0,1.46.85h.16a2,2,0,0,0,1.41-.59l36.81-37.1A2,2,0,0,0,72.22,33.08ZM33.77,67.17a24.69,24.69,0,0,1,4-29.58,24.19,24.19,0,0,1,29.34-4ZM78.2,38.49a2,2,0,0,0-1.46-.85,2,2,0,0,0-1.57.59L38.36,75.33a2,2,0,0,0,.26,3.06,28.15,28.15,0,0,0,36.47-3.14A28.72,28.72,0,0,0,78.2,38.49ZM72.27,72.41a24.2,24.2,0,0,1-29.34,4l33.3-33.57A24.69,24.69,0,0,1,72.27,72.41Zm9.16-44a37.21,37.21,0,0,0-52.86,0,37.94,37.94,0,0,0,0,53.28,37.2,37.2,0,0,0,52.86,0A37.94,37.94,0,0,0,81.43,28.36ZM78.61,78.8a33.24,33.24,0,0,1-47.22,0,33.89,33.89,0,0,1,0-47.6,33.24,33.24,0,0,1,47.22,0A33.89,33.89,0,0,1,78.61,78.8Z"/></svg>